<svg xmlns="http://www.w3.org/2000/svg" viewBox="0 0 1200 800" role="img" aria-label="No property photo uploaded yet">
  <defs>
    <linearGradient id="pv-placeholder-bg" x1="0" y1="0" x2="1" y2="1">
      <stop offset="0%" stop-color="#1C2B47" />
      <stop offset="100%" stop-color="#0B0F16" />
    </linearGradient>
  </defs>
  <rect width="1200" height="800" fill="url(#pv-placeholder-bg)" />
  <g transform="translate(600 400)" fill="none" stroke="#4A91F8" stroke-width="10" stroke-linecap="round" stroke-linejoin="round" opacity="0.55">
    <rect x="-140" y="-170" width="220" height="340" rx="10" />
    <rect x="90" y="-90" width="150" height="260" rx="10" />
    <line x1="-90" y1="-120" x2="-40" y2="-120" />
    <line x1="-90" y1="-60" x2="-40" y2="-60" />
    <line x1="-90" y1="0" x2="-40" y2="0" />
    <line x1="-90" y1="60" x2="-40" y2="60" />
    <line x1="20" y1="-120" x2="70" y2="-120" />
    <line x1="20" y1="-60" x2="70" y2="-60" />
    <line x1="20" y1="0" x2="70" y2="0" />
    <line x1="20" y1="60" x2="70" y2="60" />
    <line x1="130" y1="-50" x2="170" y2="-50" />
    <line x1="130" y1="10" x2="170" y2="10" />
    <line x1="130" y1="70" x2="170" y2="70" />
  </g>
</svg>
